<?xml version="1.0" encoding="UTF-8"?> <svg xmlns="http://www.w3.org/2000/svg" width="675.157" height="499.378" viewBox="0 0 675.157 499.378"><g id="C_shape" transform="translate(-574.346 3.206)"><g id="Group_5" data-name="Group 5"><path id="Path_14" data-name="Path 14" d="M735.958,126.891c-.075-2.481-.126-4.971-.126-7.484q0-69,37.941-122.613l-180.419.639Q574.373,54.25,574.346,119.407q0,3.758.07,7.484Z" fill="#46bbc5" style="mix-blend-mode: screen;isolation: isolate"></path><path id="Path_15" data-name="Path 15" d="M735.958,126.891c-.075-2.481-.126-4.971-.126-7.484,0-45.7,12.9-86.966,37.9-122.6l-180.382.623Q574.373,54.25,574.346,119.407q0,3.758.07,7.484Z" fill="#46bbc5" opacity="0.84" style="mix-blend-mode: multiply;isolation: isolate"></path><path id="Path_16" data-name="Path 16" d="M1249.5,320a81.515,81.515,0,1,1-81.513-81.514A81.512,81.512,0,0,1,1249.5,320Z" fill="#422180" style="mix-blend-mode: hard-light;isolation: isolate"></path></g><g id="Group_6" data-name="Group 6" style="mix-blend-mode: soft-light;isolation: isolate"><path id="Path_17" data-name="Path 17" d="M574.416,126.891h0c-.02-1.185-.04-2.371-.051-3.561Q574.385,125.113,574.416,126.891Z" fill="#ffef28"></path><path id="Path_18" data-name="Path 18" d="M1167.99,401.513a81.522,81.522,0,0,1-67.743-126.865Q1038.1,334.69,951.129,334.7q-89.153,0-152.237-63.069-60.4-60.41-62.934-144.739H574.418Q577,278.468,684.524,386.006,794.673,496.179,951.129,496.172q156.406,0,266.586-110.166l.843-.848s1-1.2,2.618-3.387A81.2,81.2,0,0,1,1167.99,401.513Z" fill="#ffef28" style="mix-blend-mode: multiply;isolation: isolate"></path><path id="Path_19" data-name="Path 19" d="M1167.99,401.513a81.522,81.522,0,0,1-67.743-126.865Q1038.1,334.69,951.129,334.7q-89.153,0-152.237-63.069-60.4-60.41-62.934-144.739H574.418Q577,278.468,684.524,386.006,794.673,496.179,951.129,496.172q156.406,0,266.586-110.166l.843-.848s1-1.2,2.618-3.387A81.2,81.2,0,0,1,1167.99,401.513Z" fill="#ffef28"></path><path id="Path_20" data-name="Path 20" d="M735.958,126.89h0Z" fill="#ffef28"></path></g><g id="Group_7" data-name="Group 7" style="mix-blend-mode: multiply;isolation: isolate"><path id="Path_21" data-name="Path 21" d="M574.416,126.891h0c-.02-1.185-.04-2.371-.051-3.561Q574.385,125.113,574.416,126.891Z" fill="#ffef28"></path><path id="Path_22" data-name="Path 22" d="M1167.99,401.513a81.522,81.522,0,0,1-67.743-126.865Q1038.1,334.69,951.129,334.7q-89.153,0-152.237-63.069-60.4-60.41-62.934-144.739H574.418Q577,278.468,684.524,386.006,794.673,496.179,951.129,496.172q156.406,0,266.586-110.166l.843-.848s1-1.2,2.618-3.387A81.2,81.2,0,0,1,1167.99,401.513Z" fill="#ffef28" style="mix-blend-mode: multiply;isolation: isolate"></path><path id="Path_23" data-name="Path 23" d="M1167.99,401.513a81.522,81.522,0,0,1-67.743-126.865Q1038.1,334.69,951.129,334.7q-89.153,0-152.237-63.069-60.4-60.41-62.934-144.739H574.418Q577,278.468,684.524,386.006,794.673,496.179,951.129,496.172q156.406,0,266.586-110.166l.843-.848s1-1.2,2.618-3.387A81.2,81.2,0,0,1,1167.99,401.513Z" fill="#ffef28" opacity="0.51"></path><path id="Path_24" data-name="Path 24" d="M735.958,126.89h0Z" fill="#ffef28"></path></g></g></svg> 